<svg id="Capa_1" enable-background="new 0 0 510 510" height="512" viewBox="0 0 510 510" width="512" xmlns="http://www.w3.org/2000/svg" xmlns:xlink="http://www.w3.org/1999/xlink"><linearGradient id="lg1"><stop offset="0" stop-color="#fd8087"/><stop offset="1" stop-color="#fd3e2b"/></linearGradient><linearGradient id="SVGID_1_" gradientUnits="userSpaceOnUse" x1="326.486" x2="391.486" xlink:href="#lg1" y1="427.092" y2="475.092"/><linearGradient id="SVGID_00000035530048789406993680000016143093825430325646_" gradientUnits="userSpaceOnUse" x1="341.613" x2="315.113" y1="444.297" y2="417.297"><stop offset="0" stop-color="#e41f2d" stop-opacity="0"/><stop offset=".3461" stop-color="#de1e2b" stop-opacity=".346"/><stop offset=".8036" stop-color="#ce1b28" stop-opacity=".804"/><stop offset="1" stop-color="#c41926"/></linearGradient><linearGradient id="lg2"><stop offset="0" stop-color="#99e6fc"/><stop offset="1" stop-color="#01c0fa"/></linearGradient><linearGradient id="SVGID_00000019659790984554240850000014353559260675187359_" gradientUnits="userSpaceOnUse" x1="160.447" x2="239.447" xlink:href="#lg2" y1="373.994" y2="429.994"/><linearGradient id="SVGID_00000021097714848568830420000003487549902307622066_" gradientUnits="userSpaceOnUse" x1="161.718" x2="203.052" y1="446.828" y2="411.494"><stop offset="0" stop-color="#017bae" stop-opacity="0"/><stop offset="1" stop-color="#017bae"/></linearGradient><linearGradient id="lg3"><stop offset="0" stop-color="#fbc56d"/><stop offset="1" stop-color="#c5715a"/></linearGradient><linearGradient id="SVGID_00000072990022732540375660000014903059692138204074_" gradientUnits="userSpaceOnUse" x1="140.486" x2="442.411" xlink:href="#lg3" y1="98.845" y2="400.77"/><linearGradient id="SVGID_00000095320619051565762420000001366734424978129804_" gradientUnits="userSpaceOnUse" x1="573.392" x2="-46.87" xlink:href="#lg3" y1="531.751" y2="-88.511"/><linearGradient id="lg4"><stop offset="0" stop-color="#8c3d27" stop-opacity="0"/><stop offset="1" stop-color="#8c3d27"/></linearGradient><linearGradient id="SVGID_00000114047675026755604840000015364062292617161130_" gradientUnits="userSpaceOnUse" x1="369.5" x2="240.376" xlink:href="#lg4" y1="327.859" y2="198.735"/><linearGradient id="SVGID_00000026841748105101338300000005150598580587537804_" gradientUnits="userSpaceOnUse" x1="255" x2="255" xlink:href="#lg4" y1="321.564" y2="414.572"/><linearGradient id="SVGID_00000022556310999955311600000009245500614626914484_" gradientUnits="userSpaceOnUse" x1="189.178" x2="338.652" y1="145.687" y2="295.161"><stop offset="0" stop-color="#eaf9fa"/><stop offset="1" stop-color="#a8d3d8"/></linearGradient><linearGradient id="lg5"><stop offset="0" stop-color="#5a5a5a"/><stop offset="1" stop-color="#444"/></linearGradient><linearGradient id="SVGID_00000086685623225619900760000003675619968309458085_" gradientUnits="userSpaceOnUse" x1="176.958" x2="176.958" xlink:href="#lg5" y1="188.071" y2="254.085"/><linearGradient id="SVGID_00000106131608688986235040000013506736334854604975_" gradientUnits="userSpaceOnUse" x1="232.627" x2="232.627" xlink:href="#lg5" y1="188.071" y2="254.085"/><linearGradient id="SVGID_00000020365475336897807610000005103755706796284090_" gradientUnits="userSpaceOnUse" x1="285.02" x2="285.02" xlink:href="#lg5" y1="188.071" y2="254.085"/><linearGradient id="SVGID_00000160902712750521235700000008863644074516970656_" gradientUnits="userSpaceOnUse" x1="338.267" x2="338.267" xlink:href="#lg5" y1="188.071" y2="254.085"/><linearGradient id="SVGID_00000148625837337233476850000009890785091882260668_" gradientUnits="userSpaceOnUse" x1="176.899" x2="346.391" xlink:href="#lg2" y1="101.537" y2="178.033"/><linearGradient id="SVGID_00000014632050997354568710000002855001855425391764_" gradientUnits="userSpaceOnUse" x1="119.477" x2="288.968" xlink:href="#lg1" y1="228.768" y2="305.264"/><g><g><path d="m216.701 298.22c17.474.226 35.209 2.896 52.763 8.271 86.96 26.627 140.625 110.512 132.325 197.648-.609 6.395-9.175 8.085-12.188 2.412-8.987-16.919-29.987-23.349-46.906-14.362l-28.97 10.804c-8.395 3.131-17.091-4.072-15.434-12.877 14.182-75.35-19.161-150.875-81.59-191.896z" fill="url(#SVGID_1_)"/><path d="m216.701 298.22c17.474.226 35.209 2.896 52.763 8.271 86.96 26.627 140.625 110.512 132.325 197.648-.609 6.395-9.175 8.085-12.188 2.412-8.987-16.919-29.987-23.349-46.906-14.362l-28.97 10.804c-8.395 3.131-17.091-4.072-15.434-12.877 14.182-75.35-19.161-150.875-81.59-191.896z" fill="url(#SVGID_00000035530048789406993680000016143093825430325646_)"/><path d="m293.299 298.22c-17.474.226-35.209 2.896-52.763 8.271-86.96 26.627-140.625 110.512-132.325 197.648.609 6.395 9.175 8.085 12.188 2.412 8.987-16.919 29.987-23.349 46.906-14.362l28.97 10.804c8.395 3.131 17.091-4.072 15.434-12.877-14.182-75.35 19.161-150.875 81.59-191.896z" fill="url(#SVGID_00000019659790984554240850000014353559260675187359_)"/><path d="m293.299 298.22c-17.474.226-35.209 2.896-52.763 8.271-86.96 26.627-140.625 110.512-132.325 197.648.609 6.395 9.175 8.085 12.188 2.412 8.987-16.919 29.987-23.349 46.906-14.362l28.97 10.804c8.395 3.131 17.091-4.072 15.434-12.877-14.182-75.35 19.161-150.875 81.59-191.896z" fill="url(#SVGID_00000021097714848568830420000003487549902307622066_)"/></g><g><path d="m279.117 10.351c18.191-19.081 50.287-10.481 56.5 15.139 4.484 18.491 23.517 29.479 41.773 24.117 25.294-7.429 48.79 16.067 41.361 41.361-5.362 18.256 5.626 37.288 24.117 41.773 25.62 6.213 34.22 38.309 15.139 56.5-13.772 13.129-13.772 35.106 0 48.235 19.081 18.191 10.481 50.287-15.139 56.5-18.491 4.484-29.479 23.517-24.117 41.773 7.429 25.294-16.067 48.79-41.361 41.361-18.256-5.362-37.288 5.626-41.773 24.117-6.213 25.62-38.309 34.22-56.5 15.139-13.129-13.772-35.106-13.772-48.235 0-18.191 19.081-50.287 10.481-56.5-15.139-4.484-18.491-23.516-29.479-41.773-24.117-25.294 7.429-48.79-16.067-41.361-41.361 5.362-18.256-5.626-37.288-24.117-41.773-25.62-6.213-34.22-38.309-15.139-56.5 13.772-13.129 13.772-35.106 0-48.235-19.081-18.191-10.481-50.287 15.139-56.5 18.491-4.484 29.479-23.517 24.117-41.773-7.429-25.294 16.067-48.79 41.361-41.361 18.256 5.362 37.288-5.626 41.773-24.117 6.213-25.62 38.309-34.22 56.5-15.139 13.13 13.772 35.106 13.772 48.235 0z" fill="url(#SVGID_00000072990022732540375660000014903059692138204074_)"/><circle cx="255" cy="213.359" fill="url(#SVGID_00000095320619051565762420000001366734424978129804_)" r="163.744"/><path d="m377.39 377.111c25.294 7.429 48.79-16.067 41.361-41.361-5.362-18.256 5.626-37.288 24.117-41.773 25.62-6.213 34.22-38.309 15.139-56.5-3.06-2.917-5.436-6.272-7.136-9.869l-105.06-105.06-181.623 181.623 105.06 105.06c3.596 1.7 6.952 4.076 9.869 7.136 18.191 19.081 50.287 10.481 56.5-15.139 4.485-18.491 23.517-29.479 41.773-24.117z" fill="url(#SVGID_00000114047675026755604840000015364062292617161130_)"/><path d="m62.196 210.57c.808 9.68-2.588 19.646-10.204 26.907-19.081 18.191-10.481 50.287 15.139 56.5 18.491 4.484 29.479 23.516 24.117 41.773-7.429 25.294 16.067 48.79 41.361 41.361 18.256-5.362 37.288 5.626 41.773 24.117 6.213 25.62 38.309 34.22 56.5 15.139 13.129-13.772 35.106-13.772 48.235 0 18.191 19.081 50.287 10.481 56.5-15.139 4.484-18.491 23.516-29.479 41.773-24.117 25.294 7.429 48.79-16.067 41.361-41.361-5.362-18.256 5.626-37.288 24.117-41.773 25.62-6.213 34.22-38.309 15.139-56.5-7.616-7.261-11.012-17.227-10.204-26.907z" fill="url(#SVGID_00000026841748105101338300000005150598580587537804_)"/><path d="m345.812 122.548c41.614 41.614 48.7 104.68 21.258 153.6-5.632 10.039-14.718 17.483-23.258 26.023-50.154 50.154-127.469 50.154-177.623 0-8.54-8.54-17.626-15.984-23.258-26.023-27.442-48.92-20.356-111.986 21.258-153.6 50.153-50.154 131.469-50.154 181.623 0z" fill="url(#SVGID_00000022556310999955311600000009245500614626914484_)"/><g><path d="m149.55 185.476c-.096-.38-.19-.76-.19-1.045 0-3.515 5.415-6.08 9.5-6.08 2.375 0 4.275.761 4.846 2.756l13.3 48.735 13.205-48.735c.57-1.995 2.47-2.756 4.845-2.756 4.085 0 9.501 2.565 9.501 6.08 0 .285-.096.665-.19 1.045l-17.67 57.951c-1.045 3.325-5.32 4.94-9.69 4.94s-8.646-1.615-9.69-4.94z" fill="url(#SVGID_00000086685623225619900760000003675619968309458085_)"/><path d="m209.304 225.947v-25.175c0-16.341 10.165-22.421 23.275-22.421s23.37 6.08 23.37 22.421v25.175c0 16.341-10.26 22.421-23.37 22.421s-23.275-6.08-23.275-22.421zm31.825-25.175c0-6.556-3.229-9.5-8.55-9.5s-8.455 2.944-8.455 9.5v25.175c0 6.556 3.135 9.5 8.455 9.5s8.55-2.944 8.55-9.5z" fill="url(#SVGID_00000106131608688986235040000013506736334854604975_)"/><path d="m305.541 178.351c3.135 0 4.465 3.421 4.465 6.556 0 3.61-1.615 6.745-4.465 6.745h-13.11v51.586c0 3.039-3.705 4.56-7.41 4.56s-7.41-1.521-7.41-4.56v-51.586h-13.111c-2.85 0-4.465-3.135-4.465-6.745 0-3.135 1.33-6.556 4.465-6.556z" fill="url(#SVGID_00000020365475336897807610000005103755706796284090_)"/><path d="m330.714 207.327h14.25c2.851 0 4.465 2.755 4.465 5.795 0 2.565-1.329 5.605-4.465 5.605h-14.25v16.15h25.46c2.851 0 4.466 3.04 4.466 6.555 0 3.04-1.33 6.365-4.466 6.365h-33.82c-3.229 0-6.46-1.521-6.46-4.56v-60.326c0-3.04 3.23-4.561 6.46-4.561h33.82c3.136 0 4.466 3.325 4.466 6.365 0 3.516-1.615 6.556-4.466 6.556h-25.46z" fill="url(#SVGID_00000160902712750521235700000008863644074516970656_)"/></g><path d="m142.934 150.573h224.132c-5.632-10.04-12.714-19.485-21.255-28.025-50.154-50.154-131.469-50.154-181.623 0-8.54 8.54-15.622 17.985-21.254 28.025z" fill="url(#SVGID_00000148625837337233476850000009890785091882260668_)"/><path d="m142.934 276.146h224.132c-5.632 10.04-12.714 19.485-21.255 28.025-50.154 50.154-131.469 50.154-181.623 0-8.54-8.54-15.622-17.985-21.254-28.025z" fill="url(#SVGID_00000014632050997354568710000002855001855425391764_)"/></g></g></svg>